# xmcd
#
# Track frame offsets:
# 150
# 10328
# 21886
# 35871
# 45121
# 59208
# 72889
# 83967
# 94755
# 113685
# 135068
# 148068
# 165251
# 176840
# 187565
# 201101
# 211787
# 220572
#
# Disc length: 3344 seconds
#
#
# Revision: 1
# Processed by: cddbd v1.5.2PL0 Copyright (c) Steve Scherf et al.
# Submitted via: MfcCDDB 1.28 
#
DISCID=ec0d0e12
DTITLE=BFF - Banda-Feliz-Festa03
DYEAR=2015
DGENRE=Folk
TTITLE0=Polca tira o chapeu
TTITLE1=Valsa oube apenas
TTITLE2=Sapataria Jose
TTITLE3=Valsa que coisa
TTITLE4=Homenagem Osvino/
TTITLE5=Macega valsa
TTITLE6=Maxixe briga do sax
TTITLE7=Dancando Sao Martinho
TTITLE8=Valsa Erica - Marichen
TTITLE9=Polca do Miro
TTITLE10=Vem morena
TTITLE11=Mein herz macht bum
TTITLE12=Rancheira velha
TTITLE13=Polca Monte Azul
TTITLE14=Valsa Cruzeiro
TTITLE15=Polca Aguia Azul
TTITLE16=Polca Futuristas
TTITLE17=Quero te encontrar
EXTD=
EXTT0=
EXTT1=
EXTT2=
EXTT3=
EXTT4=
EXTT5=
EXTT6=
EXTT7=
EXTT8=
EXTT9=
EXTT10=
EXTT11=
EXTT12=
EXTT13=
EXTT14=
EXTT15=
EXTT16=
EXTT17=
PLAYORDER=
